<svg width="307" height="153" viewBox="0 0 307 153" fill="none" xmlns="http://www.w3.org/2000/svg">
<g id="Component 1">
<path id="path2494" fill-rule="evenodd" clip-rule="evenodd" d="M1.74786 139.76C1.48059 13.9509 1.04931 12.2957 1.04931 12.2926C2.81695 5.95101 6.34007 0.286678 19.1873 1.07331L289.128 1.96927C298.868 1.98749 307.148 2.9442 305.869 10.0482V119.113C304.463 142.548 283.588 150.788 259.832 151.429L19.8828 151.878C2.03335 154.429 -0.648469 146.496 1.74786 139.76Z" fill="#636A7C" stroke="black" stroke-width="0.303717"/>
<path id="pLED" opacity="0.914" fill-rule="evenodd" clip-rule="evenodd" d="M28.2508 58.748C28.2577 59.1339 28.1456 59.5168 27.9208 59.8747C27.6961 60.2325 27.3633 60.5581 26.9416 60.8325C26.5199 61.107 26.0178 61.3249 25.4643 61.4736C24.9108 61.6223 24.317 61.6989 23.7172 61.6989C23.1174 61.6989 22.5235 61.6223 21.9701 61.4736C21.4166 61.3249 20.9145 61.107 20.4928 60.8325C20.0711 60.5581 19.7383 60.2325 19.5136 59.8747C19.2888 59.5168 19.1767 59.1339 19.1836 58.748C19.1767 58.362 19.2888 57.9791 19.5136 57.6213C19.7383 57.2634 20.0711 56.9379 20.4928 56.6634C20.9145 56.3889 21.4166 56.171 21.9701 56.0223C22.5235 55.8736 23.1174 55.797 23.7172 55.797C24.317 55.797 24.9108 55.8736 25.4643 56.0223C26.0178 56.171 26.5199 56.3889 26.9416 56.6634C27.3633 56.9379 27.6961 57.2634 27.9208 57.6213C28.1456 57.9791 28.2577 58.362 28.2508 58.748Z" fill="#FF0000"/>
<path id="path3282" d="M17.7902 8.70264L96.611 9.15214" stroke="black" stroke-width="0.303717"/>
<path id="path3298" d="M255.65 13.641H292.618" stroke="black" stroke-width="0.303717"/>
<path id="path3304" d="M255.85 10.1848H292.821" stroke="black" stroke-width="0.303717"/>
<path id="path3306" d="M19.5336 13.8658L98.3543 14.3123" stroke="black" stroke-width="0.303717"/>
<path id="screen" opacity="0.914" d="M252.16 19.9249H57.5499V133.928H252.16V19.9249Z" fill="#5E6E01" stroke="#160000" stroke-width="0.637806" stroke-linecap="round" stroke-linejoin="round"/>
</g>
</svg>
