<svg width="260" height="236" viewBox="0 0 260 236" fill="none" xmlns="http://www.w3.org/2000/svg">
<g id="Component 1">
<g id="top">
<rect id="Rectangle 1" x="65" width="130" height="21" fill="#3B0048"/>
<rect id="Rectangle 3" x="21" y="64" width="43" height="21" transform="rotate(90 21 64)" fill="#3B0048"/>
<rect id="Rectangle 6" x="260" y="64" width="43" height="21" transform="rotate(90 260 64)" fill="#3B0048"/>
<rect id="Rectangle 7" x="239" y="64" width="43" height="21" transform="rotate(90 239 64)" fill="#FF37BF"/>
<rect id="Rectangle 8" x="42" y="64" width="43" height="21" transform="rotate(90 42 64)" fill="#FF37BF"/>
<rect id="Rectangle 9" x="65" y="43" width="21" height="23" transform="rotate(90 65 43)" fill="#FF37BF"/>
<rect id="Rectangle 24" x="195" y="21" width="21" height="130" transform="rotate(90 195 21)" fill="#FF37BF"/>
<rect id="Rectangle 30" x="195" y="21" width="21" height="130" transform="rotate(90 195 21)" fill="#FF37BF"/>
<rect id="Rectangle 43" x="195" y="42" width="26" height="130" transform="rotate(90 195 42)" fill="#E1007C"/>
<rect id="Rectangle 26" x="87" y="107" width="22" height="66" transform="rotate(90 87 107)" fill="#AC005E"/>
<rect id="Rectangle 31" x="239" y="107" width="22" height="66" transform="rotate(90 239 107)" fill="#AC005E"/>
<rect id="Rectangle 27" x="218" y="64" width="22" height="176" transform="rotate(90 218 64)" fill="#E1007C"/>
<rect id="Rectangle 28" x="108" y="85" width="22" height="66" transform="rotate(90 108 85)" fill="#E1007C"/>
<rect id="Rectangle 29" x="218" y="85" width="22" height="67" transform="rotate(90 218 85)" fill="#E1007C"/>
<rect id="Rectangle 40" x="108" y="107" width="22" height="21" transform="rotate(90 108 107)" fill="#8A008C"/>
<rect id="Rectangle 41" x="173" y="107" width="22" height="22" transform="rotate(90 173 107)" fill="#8A008C"/>
<rect id="Rectangle 42" x="151" y="86" width="22" height="43" transform="rotate(90 151 86)" fill="#8A008C"/>
<rect id="Rectangle 10" x="218" y="43" width="21" height="23" transform="rotate(90 218 43)" fill="#FF37BF"/>
<rect id="Rectangle 20" x="42" y="43" width="21" height="21" transform="rotate(90 42 43)" fill="#3B0048"/>
<rect id="Rectangle 21" x="65" y="21" width="22" height="22" transform="rotate(90 65 21)" fill="#3B0048"/>
<rect id="Rectangle 22" x="217" y="21" width="22" height="22" transform="rotate(90 217 21)" fill="#3B0048"/>
<rect id="Rectangle 23" x="239" y="42" width="22" height="22" transform="rotate(90 239 42)" fill="#3B0048"/>
</g>
<g id="bottom">
<rect id="Rectangle 32" x="108" y="150" width="22" height="64" transform="rotate(90 108 150)" fill="#F0F0F0"/>
<rect id="Rectangle 34" x="239" y="128" width="22" height="66" transform="rotate(90 239 128)" fill="#F0F0F0"/>
<rect id="Rectangle 35" x="88" y="128" width="22" height="66" transform="rotate(90 88 128)" fill="#F0F0F0"/>
<rect id="Rectangle 36" x="195" y="171" width="22" height="129" transform="rotate(90 195 171)" fill="#F0F0F0"/>
<rect id="Rectangle 33" x="218" y="150" width="22" height="66" transform="rotate(90 218 150)" fill="#F0F0F0"/>
<rect id="Rectangle 37" x="152" y="149" width="22" height="44" transform="rotate(90 152 149)" fill="#560156"/>
<rect id="Rectangle 38" x="108" y="128" width="22" height="20" transform="rotate(90 108 128)" fill="#560156"/>
<rect id="Rectangle 39" x="173" y="128" width="22" height="21" transform="rotate(90 173 128)" fill="#560156"/>
<rect id="Rectangle 25" x="195" y="193" width="21" height="130" transform="rotate(90 195 193)" fill="#FEC5E6"/>
<rect id="Rectangle 11" x="218" y="172" width="21" height="23" transform="rotate(90 218 172)" fill="#FEC5E6"/>
<rect id="Rectangle 12" x="66" y="172" width="21" height="23" transform="rotate(90 66 172)" fill="#FEC5E6"/>
<rect id="Rectangle 13" x="44" y="151" width="21" height="23" transform="rotate(90 44 151)" fill="#FEC5E6"/>
<rect id="Rectangle 14" x="239" y="151" width="21" height="23" transform="rotate(90 239 151)" fill="#FEC5E6"/>
<rect id="Rectangle 15" x="239" y="172" width="21" height="22" transform="rotate(90 239 172)" fill="#D9D9D9"/>
<rect id="Rectangle 16" x="239" y="172" width="21" height="22" transform="rotate(90 239 172)" fill="#260053"/>
<rect id="Rectangle 17" x="217" y="193" width="21" height="22" transform="rotate(90 217 193)" fill="#260053"/>
<rect id="Rectangle 18" x="65" y="193" width="21" height="22" transform="rotate(90 65 193)" fill="#260053"/>
<rect id="Rectangle 19" x="44" y="172" width="21" height="22" transform="rotate(90 44 172)" fill="#260053"/>
<rect id="Rectangle 4" x="21" y="107" width="65" height="21" transform="rotate(90 21 107)" fill="#260053"/>
<rect id="Rectangle 5" x="260" y="107" width="65" height="21" transform="rotate(90 260 107)" fill="#260053"/>
<rect id="Rectangle 2" x="65" y="214" width="130" height="22" fill="#260053"/>
</g>
<g id="center">
<rect id="Rectangle 43_2" x="151" y="108" width="22" height="43" transform="rotate(90 151 108)" fill="#F0F0F0"/>
<rect id="Rectangle 44" x="153" y="127" width="22" height="45" transform="rotate(90 153 127)" fill="#FF99D0"/>
</g>
</g>
</svg>
