<svg width="416" height="415" viewBox="0 0 416 415" fill="none" xmlns="http://www.w3.org/2000/svg">
<g id="pokeball">
<g id="top">
<rect id="Rectangle 45" x="135" width="139" height="34" fill="#111112"/>
<rect id="Rectangle 46" x="274" y="34" width="73" height="34" fill="#111112"/>
<rect id="Rectangle 47" x="69" y="34" width="68" height="35" fill="#111112"/>
<rect id="Rectangle 143" y="137" width="33" height="71" fill="#111112"/>
<rect id="Rectangle 144" x="381" y="139" width="35" height="71" fill="#111112"/>
<rect id="Rectangle 53" x="346" y="68" width="35" height="72" fill="#111112"/>
<rect id="Rectangle 56" x="32" y="70" width="37" height="70" fill="#111112"/>
<rect id="Rectangle 57" x="33" y="208" width="35" height="36" fill="#111112"/>
<rect id="Rectangle 63" x="171" y="172" width="72" height="36" fill="#111112"/>
<rect id="Rectangle 89" x="33" y="244" width="35" height="35" fill="#FEFEF9"/>
<rect id="Rectangle 61" x="136" y="208" width="35" height="36" fill="#111112"/>
<rect id="Rectangle 62" x="242" y="208" width="33" height="36" fill="#111112"/>
<rect id="Rectangle 58" x="346" y="208" width="35" height="36" fill="#111112"/>
<rect id="Rectangle 59" x="242" y="243" width="105" height="36" fill="#111112"/>
<rect id="Rectangle 60" x="68" y="243" width="103" height="36" fill="#111112"/>
<rect id="Rectangle 65" x="274" y="68" width="72" height="175" fill="#9D201E"/>
<rect id="Rectangle 66" x="68" y="140" width="71" height="103" fill="#E21826"/>
<rect id="Rectangle 68" x="33" y="140" width="35" height="68" fill="#E21826"/>
<rect id="Rectangle 69" x="69" y="69" width="35" height="71" fill="#E21826"/>
<rect id="Rectangle 67" x="207" y="105" width="67" height="67" fill="#E21826"/>
<rect id="Rectangle 72" x="243" y="172" width="31" height="36" fill="#9D201E"/>
<rect id="Rectangle 73" x="136" y="172" width="35" height="36" fill="#E21826"/>
<rect id="Rectangle 74" x="171" y="140" width="36" height="32" fill="#9D201E"/>
<rect id="Rectangle 75" x="139" y="140" width="33" height="32" fill="#ED7072"/>
<rect id="Rectangle 76" x="171" y="105" width="36" height="35" fill="#ED7072"/>
<rect id="Rectangle 77" x="136" y="105" width="36" height="35" fill="#FEFEF9"/>
<rect id="Rectangle 78" x="104" y="105" width="35" height="35" fill="#ED7072"/>
<rect id="Rectangle 79" x="171" y="69" width="37" height="36" fill="#E21826"/>
<rect id="Rectangle 80" x="136" y="69" width="36" height="36" fill="#ED7072"/>
<rect id="Rectangle 81" x="104" y="69" width="35" height="36" fill="#E21826"/>
<rect id="Rectangle 82" x="136" y="34" width="36" height="35" fill="#E21826"/>
<rect id="Rectangle 83" x="172" y="34" width="36" height="35" fill="#9D201E"/>
<rect id="Rectangle 70" x="207" y="34" width="68" height="71" fill="#9D201E"/>
<rect id="Rectangle 71" x="346" y="140" width="35" height="68" fill="#9D201E"/>
<rect id="Rectangle 90" x="346" y="243" width="35" height="36" fill="#B9B9B3"/>
<g id="center">
<rect id="Rectangle 91" x="171" y="208" width="36" height="36" fill="#D9D9D9"/>
<rect id="Rectangle 93" x="171" y="244" width="36" height="35" fill="#B9B9B3"/>
<rect id="Rectangle 92" x="207" y="208" width="35" height="71" fill="#B9B9B3"/>
</g>
</g>
<g id="bottom">
<rect id="Rectangle 50" x="135" y="381" width="139" height="34" fill="#111112"/>
<rect id="Rectangle 49" x="274" y="347" width="73" height="34" fill="#111112"/>
<rect id="Rectangle 48" x="69" y="347" width="66" height="34" fill="#111112"/>
<rect id="Rectangle 51" y="208" width="33" height="71" fill="#111112"/>
<rect id="Rectangle 52" x="381" y="208" width="35" height="71" fill="#111112"/>
<rect id="Rectangle 54" x="346" y="279" width="35" height="68" fill="#111112"/>
<rect id="Rectangle 55" x="34" y="279" width="35" height="68" fill="#111112"/>
<rect id="Rectangle 64" x="171" y="279" width="72" height="36" fill="#111112"/>
<rect id="Rectangle 87" x="69" y="279" width="102" height="36" fill="#D9D9D9"/>
<rect id="Rectangle 88" x="69" y="279" width="102" height="36" fill="#FEFEF9"/>
<rect id="Rectangle 84" x="242" y="279" width="104" height="68" fill="#B9B9B3"/>
<path id="Rectangle 85" d="M135 347H274V381H135V347Z" fill="#B9B9B3"/>
<path id="Rectangle 86" d="M69 315H242V347H69V315Z" fill="#FEFEF9"/>
</g>
</g>
</svg>
